<svg xmlns="http://www.w3.org/2000/svg" width="18" height="18.5" viewBox="0 0 36 37"><g><g><path fill="#a2abb8" d="M.679 19.462L11.225 2.073C12.43.086 15.055-.647 17.11.668L34.026 11.5c1.933 1.238 2.57 4.06 1.365 6.047L24.845 34.937a4.217 4.217 0 0 1-5.884 1.404L2.044 25.51C-.01 24.194-.602 21.574.679 19.462zm13.62-8.351c1.33.852 3.094.43 3.923-.936.829-1.367.344-3.056-.985-3.907-1.33-.852-3.02-.555-3.848.812-.829 1.366-.42 3.18.91 4.03zm11.842 7.583c1.329.851 2.973.352 3.802-1.013.828-1.367.464-2.98-.865-3.83-1.329-.852-3.02-.555-3.848.812-.828 1.366-.419 3.18.91 4.031zm-19.224 4.59c1.329.85 3.095.428 3.923-.937.829-1.366.419-3.18-.91-4.032-1.33-.85-3.095-.429-3.923.937-.829 1.366-.42 3.18.91 4.031zm9.611-2.295c1.33.851 3.095.43 3.924-.937.828-1.366.419-3.18-.91-4.031-1.33-.852-3.095-.43-3.924.936-.828 1.367-.419 3.181.91 4.032zm2.23 9.877c1.33.851 2.974.352 3.802-1.013.83-1.367.54-3.104-.789-3.955-1.329-.851-3.094-.43-3.923.937-.829 1.365-.419 3.18.91 4.031z"/></g></g></svg>