<svg xmlns="http://www.w3.org/2000/svg" width="35" height="35" viewBox="0 0 70 70"><g><g><path fill="#ff3c00" d="M-.002 17.164v-1.416c.557-.68 1.135-1.342 1.658-2.045.19-.254.327-.6.349-.915.158-2.219.269-4.44.422-6.658.038-.553-.103-.903-.687-1.027C.785 4.898.57 4.249.834 3.42c.265-.833-.03-2.015 1.53-2.014 4.62.002 9.241-.104 13.863-.133.45-.001 1.13.083 1.312.372.632 1.002 1.58.93 2.515.948 1.563.03 3.128-.027 4.69.032.924.035 1.712-.188 2.49-.672.827-.516 1.69-1.224 2.592-1.317a28.05 28.05 0 0 1 5.8-.002c1.88.198 3.728.729 5.577 1.174.267.063.43.481.686.681.297.233.667.604.96.567 1.496-.187 3.005-.43 3.577-2.165.274-.832.897-.977 1.705-.863 2.89.408 5.787.77 8.679 1.166 1.352.186 2.9.072 3.202 2.226.439-.573.657-.95.964-1.231.326-.302.747-.735 1.11-.72 1.795.07 3.615.124 5.362.492.73.154 1.405.997 1.875 1.68.135.199-.527.94-.833 1.426-.09.143-.218.26-.31.402-.706 1.086-.498 1.863.559 2.597.31.216.593.678.624 1.05.132 1.541.157 3.094.231 4.64.13 2.689.27 5.378.405 8.065v.406c-.316.3-.623.61-.948.898-1.02.903-1.695 1.916-1.248 3.368.072.235.018.63-.14.794-1.121 1.168-1.296 1.439-.276 2.54 1.336 1.442 1.534 3.034 1.328 4.824-.072.632-.075 1.277-.058 1.915.02.828.04 1.554-1.036 1.865-.263.076-.294.94-.431 1.444.375.086.754.256 1.126.24.563-.022 1.122-.174 1.683-.27v5.467c-.063.53-.16 1.064-.18 1.597-.154 4.043-.281 8.088-.44 12.133-.092 2.358-.24 4.714-.337 7.072-.033.814-.409.81-1.069.631-1.067-.291-2.156-.557-3.252-.677-1.017-.11-1.955.12-1.92 1.507-2.525-.07-4.986.293-7.307-.813-.846-.401-1.692-.264-2.559.108-.67.285-1.42.51-2.14.53-3.262.092-6.527.131-9.79.12-1.065-.004-1.783.34-2.344 1.255-1.03 1.677-1.952 1.614-2.896-.124-.598-1.101-2.721-1.47-3.68-.706-.6.478-1.269.91-1.972 1.206-.613.257-1.257-.01-1.26-.735-.003-1.317-.828-1.6-1.856-1.62-4.484-.085-8.97-.112-13.454-.21-1.96-.044-3.916-.231-5.876-.317a20.697 20.697 0 0 0-2.416.056c-.47.033-.928.208-1.398.271-1.887.25-3.367-1.025-3.293-2.863.13-3.2.27-6.4.447-9.6.026-.482.12-1.145.44-1.391.823-.63.901-1.442.934-2.328.063-1.719.154-3.436.177-5.156.004-.308-.19-.81-.416-.894-1.054-.391-1.159-1.165-1.094-2.102.05-.738.04-1.486.004-2.226-.089-1.814.055-3.557 1.12-5.136.314-.463.462-1.05.632-1.596.383-1.227.31-1.442-.932-1.686-.816-.162-.962-.564-.869-1.26.262-1.936.55-3.872.735-5.816.052-.55-.172-1.143-.35-1.69-.317-.976-.775-1.91-1.023-2.901-.226-.903-.252-1.856-.367-2.787zM53.347 56.52c1.086-.059 2.175-.084 3.257-.187 1.712-.161 1.855-.313 2.162-1.96.512-2.752.956-5.518 1.552-8.251.388-1.78-.078-2.923-1.653-3.987-12.753-8.621-25.447-17.33-38.165-26.002-1.764-1.203-3.524-2.421-5.37-3.49-.679-.391-1.615-.556-2.406-.494-.962.076-1.896.498-2.841.773-.685.199-.79.602-.344 1.118.595.69 1.218 1.362 1.845 2.025C23.326 28.72 35.307 41.342 47.177 54.066c1.775 1.903 3.505 3.124 6.17 2.453zm-39.2-14.987c-.307.612-.581 1.074-.779 1.565a877.882 877.882 0 0 0-3.292 8.277c-.628 1.606-.611 1.619.728 2.797.636.558 1.33 1.058 1.922 1.659 1.679 1.706 3.805 2.307 6.094 2.398.81.032 1.714-.136 2.434-.495 1.636-.815 3.195-1.788 4.767-2.727 1.456-.871 1.474-.917.21-2.132a1836.331 1836.331 0 0 0-9.863-9.384c-.681-.645-1.408-1.243-2.222-1.958zm28.87-26.144l-.195.416c.524.415 1.053.826 1.572 1.25 3.09 2.526 6.182 5.049 9.263 7.585.653.54.938.287 1.11-.409.698-2.81 1.422-5.613 2.08-8.432.07-.3-.12-.809-.367-1.005-.868-.697-1.78-1.358-2.744-1.911-.414-.238-1.045-.35-1.501-.232-2.721.714-5.421 1.503-8.124 2.284-.377.11-.73.3-1.093.454z"/></g></g></svg>