<svg xmlns="http://www.w3.org/2000/svg" width="21" height="16" viewBox="0 0 42 32"><g><g><path fill="#fff" d="M41.778 16.255c-2.567 2.31-5.101 4.656-7.682 6.949-.006-.667-.01-2.634-.01-4.92H20.698v-4.572h13.388c.002-2.284.004-4.251.006-4.918 2.62 2.348 5.22 4.719 7.82 7.087.219.123-.033.265-.134.374zM25.24 22.857h5.382c-2.592 5.392-8.118 9.141-14.522 9.141-8.877 0-16.1-7.178-16.1-16C0 7.175 7.222 0 16.1-.002c6.404 0 11.93 3.746 14.522 9.143H25.24c-2.103-2.759-5.4-4.571-9.14-4.571-6.343 0-11.5 5.127-11.5 11.428 0 6.3 5.157 11.43 11.5 11.43 3.74 0 7.037-1.813 9.14-4.571z"/></g></g></svg>