<svg xmlns="http://www.w3.org/2000/svg" width="26" height="29" viewBox="0 0 52 58"><g><g><path fill="#fff" d="M51.995 18.216v21.565c0 3.402-2.332 5.665-3.71 6.465L29.708 57.03a7.099 7.099 0 0 1-3.611.97c-2.081-.001-3.64-.87-3.81-.97L3.71 46.246C.78 44.545-.002 41.38-.002 39.78V18.216c0-3.404 2.333-5.665 3.712-6.466L22.285.968a7.1 7.1 0 0 1 3.612-.97c2.08 0 3.64.87 3.81.97L48.285 11.75c2.93 1.701 3.711 4.865 3.711 6.466zm-46.09-2.962l9.925 5.765.379-.38c3.269-3.289 7.79-3.327 7.98-3.327h4.698c3.491 0 5.872 2.294 6.133 2.556l1.144 1.151 9.926-5.766L27.653 4.55s-.778-.415-1.755-.415c-.566 0-1.076.136-1.557.415zm26.972 19.491l4.306-4.333c.8-.852.806-1.704 0-2.516l-5.072-5.103c-.001 0-1.405-1.343-3.225-1.343h-4.697c-.018 0-3.032.061-5.073 2.114l-4.306 4.333c-.8.852-.806 1.704 0 2.515l5.071 5.103c.002 0 1.407 1.345 3.226 1.345h4.687c.105-.003 3.069-.087 5.083-2.115zm-8.937 18.47V40.996h-.834c-3.492 0-5.874-2.296-6.133-2.56l-5.071-5.1c-3.051-3.069-1.671-6.684 0-8.366l.917-.923-8.71-5.06v20.793c.002.056.067 1.958 1.655 2.881zm23.943-13.433V18.99l-8.71 5.059.918.923c3.05 3.07 1.67 6.686 0 8.367l-4.306 4.333c-2.877 2.895-6.722 3.27-7.732 3.318v12.225L46.23 42.663c.047-.03 1.653-1.037 1.653-2.881zm-16.34-10.783c0 3.099-2.489 5.619-5.546 5.619-3.059 0-5.547-2.52-5.547-5.619 0-3.099 2.488-5.619 5.547-5.619 3.057 0 5.546 2.52 5.546 5.62z"/></g></g></svg>