<svg xmlns="http://www.w3.org/2000/svg" width="22.5" height="22.5" viewBox="0 0 45 45"><g><g><path fill="#fff" d="M13.826 16.161l-9.919 2.323c-.004 0-.006.003-.01.004l-1.746.409a1.74 1.74 0 0 1-1.489-.343A1.77 1.77 0 0 1 0 17.168v-5.47c0-.548.243-1.056.668-1.396a1.721 1.721 0 0 1 1.481-.335l1.75.41.008.004 9.925 2.323c.384.088.732.308.975.613.25.321.384.707.384 1.116 0 .829-.562 1.54-1.365 1.728zm3.286 13.788l4.365-7.089v22.145H7.54c-1.312 0-2.38-1.08-2.38-2.405V20.31l9.13-2.139c.42-.098.807-.266 1.156-.485.154.421.379.805.658 1.145l-4.833 7.311a3.538 3.538 0 0 0-.174 3.607 3.465 3.465 0 0 0 3.065 1.857c1.209 0 2.313-.62 2.95-1.658zm8.781-22.054h-2.372V-.007h13.99c1.313 0 2.38 1.084 2.38 2.415v6.134L30.72 10.69c-.348.08-.677.22-.988.392-.355-1.814-1.94-3.187-3.838-3.187zM12.969 27.29l4.634-7.01h3.057l-5.283 8.579a1.42 1.42 0 0 1-1.216.683c-.538 0-1.01-.286-1.264-.765a1.44 1.44 0 0 1 .072-1.487zm1.318-16.598L5.16 8.554V2.408c0-1.331 1.068-2.414 2.38-2.414h13.938v7.9h-2.371c-1.898 0-3.483 1.373-3.839 3.187a3.73 3.73 0 0 0-.98-.389zM45 11.697v5.47a1.77 1.77 0 0 1-.663 1.387c-.421.34-.964.466-1.485.344l-1.687-.395c-.007-.002-.013-.007-.02-.01l-9.97-2.33a1.769 1.769 0 0 1-1.366-1.73c0-.405.131-.788.379-1.109.08-.101.185-.175.284-.255.054-.043.097-.102.157-.14.166-.105.35-.181.544-.226l9.971-2.332.015-.006 1.694-.398a1.726 1.726 0 0 1 1.479.335c.424.34.668.848.668 1.395zm-14.287 6.477l9.179 2.15V42.6c0 1.326-1.068 2.405-2.38 2.405H23.52V22.86l4.366 7.089a3.448 3.448 0 0 0 2.95 1.658c1.286 0 2.46-.711 3.066-1.857a3.537 3.537 0 0 0-.175-3.607l-4.832-7.311c.279-.341.504-.724.658-1.146.35.22.738.388 1.159.488zm-4.82.042h-6.787a1.884 1.884 0 0 1-1.872-1.892V11.85c0-1.044.84-1.892 1.872-1.892h6.787c1.032 0 1.872.848 1.872 1.892v4.473c0 1.043-.84 1.892-1.872 1.892zm1.503 2.064l4.633 7.01a1.44 1.44 0 0 1 .072 1.487 1.412 1.412 0 0 1-1.263.765 1.42 1.42 0 0 1-1.216-.683l-5.284-8.58z"/></g></g></svg>