<svg xmlns="http://www.w3.org/2000/svg" width="16.5" height="18" viewBox="0 0 33 36"><g><g><path fill="#0b76ff" d="M25.693 22.557v1.68c0 .529-.441.96-.98.96h-7.208a.973.973 0 0 1-.981-.96v-1.68c0-.528.441-.96.98-.96h7.258c.54 0 .98.432.931.96zm-23.83 13.44C.833 35.997 0 35.23 0 34.221V3.598c0-2.016 1.667-3.6 3.677-3.6h25.644c2.06 0 3.678 1.632 3.678 3.6v30.575c0 .288-.048.576-.196.816-.441.912-1.52 1.248-2.452.816l-2.844-1.392-2.892 1.392c-.54.24-1.128.24-1.668 0l-2.844-1.392-2.844 1.392c-.49.24-1.078.24-1.618 0l-2.844-1.392-2.844 1.392c-.49.24-1.078.24-1.618 0l-2.844-1.392-2.844 1.392a1.58 1.58 0 0 1-.784.192zm1.814-4.704l1.03-.48c.54-.24 1.127-.24 1.667 0l2.893 1.392 2.844-1.392c.49-.24 1.079-.24 1.618 0l2.844 1.392 2.844-1.392c.49-.24 1.079-.24 1.618 0l2.893 1.392 2.844-1.392c.49-.24 1.079-.24 1.618 0l1.03.48V3.598H3.677zm4.658-20.495a.973.973 0 0 1-.98-.96v-1.68c0-.528.44-.96.98-.96h16.427c.54 0 .98.432.98.96v1.68c0 .528-.44.96-.98.96zm0 7.2a.973.973 0 0 1-.98-.96v-1.68c0-.528.44-.96.98-.96h16.427c.54 0 .98.432.98.96v1.68c0 .528-.44.96-.98.96z"/></g></g></svg>