<svg xmlns="http://www.w3.org/2000/svg" width="18" height="19" viewBox="0 0 36 38"><g><g><path fill="#a2abb8" d="M25.2 32.07v-2.652c0-.29.192-.482.48-.482h4.415c.288 0 .48.193.48.482v2.651c0 .29-.192.483-.48.483H25.68c-.287 0-.48-.192-.48-.483zM5.422 21.221V18.57c0-.29.192-.482.48-.482h4.416c.288 0 .48.193.48.482v2.653c0 .288-.192.481-.48.481H5.903c-.288 0-.48-.193-.48-.48zm10.752-8.536V6.225L13.871 8.54a1.807 1.807 0 0 1-2.544-.096c-.624-.677-.624-1.785 0-2.46l5.376-5.45a1.763 1.763 0 0 1 2.544 0l5.424 5.402c.72.676.768 1.831.096 2.555a1.807 1.807 0 0 1-2.544.097l-.096-.097-2.304-2.266v6.461H34.08a1.93 1.93 0 0 1 1.92 1.929v21.457a1.93 1.93 0 0 1-1.92 1.929H1.919A1.93 1.93 0 0 1 0 36.072V14.615a1.93 1.93 0 0 1 1.92-1.929zM3.6 34.386h28.8V16.302H19.823v3.906c2.832 1.013 4.272 4.099 3.312 6.942-.96 2.846-4.08 4.293-6.912 3.329-2.831-.965-4.272-4.1-3.312-6.945.528-1.543 1.776-2.749 3.312-3.326v-3.906H3.6z"/></g></g></svg>