<svg xmlns="http://www.w3.org/2000/svg" width="21" height="16" viewBox="0 0 42 32"><g><g><path fill="#a2abb8" d="M5.74 23.106h4.293c.28 0 .466.19.466.474v2.604c0 .284-.186.473-.466.473H5.739c-.28 0-.466-.19-.466-.473V23.58c0-.285.187-.474.466-.474zm-3.874 8.855c-1.027.047-1.867-.806-1.867-1.894V8.995c0-1.041.84-1.894 1.867-1.894h5.133V3.55C7 1.61 8.586 0 10.5 0h28c1.914 0 3.5 1.61 3.5 3.55v17.757c0 1.943-1.586 3.553-3.5 3.553H35v5.208c0 1.042-.84 1.894-1.866 1.894H1.866c0 .047 0 .047 0 0zm8.633-28.412v3.552h22.634c1.026 0 1.866.853 1.866 1.894v12.311h3.5V3.55zm-7 24.86h28V10.653h-28zm21.467-15.957h4.293c.28 0 .467.19.467.473v2.605c0 .284-.186.473-.467.473h-4.293c-.28 0-.467-.19-.467-.473v-2.605a.47.47 0 0 1 .467-.473zM17.5 14.251c2.886 0 5.226 2.374 5.226 5.304s-2.34 5.304-5.226 5.304c-2.887 0-5.227-2.375-5.227-5.304 0-2.93 2.34-5.304 5.227-5.304z"/></g></g></svg>