<svg xmlns="http://www.w3.org/2000/svg" width="18.5" height="18" viewBox="0 0 37 36"><g><g><path fill="#a2abb8" d="M22.64 19.525a2.473 2.473 0 0 1 2.468 2.477 2.473 2.473 0 0 1-2.468 2.478 2.473 2.473 0 0 1-2.468-2.478 2.473 2.473 0 0 1 2.468-2.477zm-8.242-8.318a2.473 2.473 0 0 1 2.468 2.477 2.473 2.473 0 0 1-2.468 2.478 2.474 2.474 0 0 1-2.468-2.478 2.473 2.473 0 0 1 2.468-2.477zM.956 20.41a3.457 3.457 0 0 1 0-4.779L2.85 13.64c.308-.399.485-.885.44-1.416L2.94 9.48c-.22-1.814 1.014-3.54 2.82-3.85l2.645-.486a1.999 1.999 0 0 0 1.19-.885l1.278-2.433c.838-1.593 2.82-2.257 4.496-1.46l2.424 1.194c.44.22.97.22 1.454 0L21.67.365c1.631-.84 3.614-.177 4.496 1.46l1.278 2.434c.264.443.705.752 1.19.885l2.644.487A3.412 3.412 0 0 1 34.1 9.48l-.396 2.743c-.045.53.132 1.017.44 1.416l1.895 1.947a3.458 3.458 0 0 1 0 4.779l-1.895 1.99c-.353.399-.485.885-.44 1.417l.352 2.743c.22 1.814-1.014 3.54-2.82 3.85l-2.645.486a2.005 2.005 0 0 0-1.19.885l-1.278 2.434c-.838 1.593-2.821 2.257-4.496 1.46l-2.424-1.195c-.44-.221-.97-.221-1.455 0l-2.423 1.195c-1.631.84-3.614.177-4.496-1.46L9.55 31.737a2.003 2.003 0 0 0-1.19-.885l-2.644-.487a3.412 3.412 0 0 1-2.821-3.85l.396-2.742c.045-.487-.088-1.018-.44-1.417zm2.38-2.567c-.045.044 1.895 2.168 1.895 2.168 1.058 1.106 1.542 2.655 1.366 4.16L6.2 26.914c0 .044 2.733.62 2.733.62 1.498.309 2.777 1.283 3.526 2.61 0 0 1.366 2.478 1.41 2.478l2.512-1.106a5.127 5.127 0 0 1 4.408 0s2.556 1.194 2.556 1.15l1.278-2.433a5.18 5.18 0 0 1 3.526-2.611s2.733-.575 2.733-.62l-.397-2.743c-.176-1.504.309-3.053 1.366-4.159 0 0 1.895-2.125 1.852-2.168l-1.896-1.991a5.318 5.318 0 0 1-1.366-4.205s.308-2.875.264-2.875l-2.644-.487c-1.499-.31-2.777-1.283-3.526-2.61 0 0-1.366-2.478-1.41-2.478L20.7 4.48a5.128 5.128 0 0 1-4.408 0s-2.556-1.194-2.556-1.15L12.46 5.764a5.18 5.18 0 0 1-3.526 2.61l-2.644.487c-.044.045.264 2.875.264 2.875.22 1.55-.264 3.098-1.322 4.205zm11.37 6.15c-.616.576-1.586.576-2.247 0a1.675 1.675 0 0 1-.088-2.345l9.916-9.955.089-.089a1.66 1.66 0 0 1 2.335.089 1.676 1.676 0 0 1-.088 2.345z"/></g></g></svg>