<svg xmlns="http://www.w3.org/2000/svg" width="18.5" height="17" viewBox="0 0 37 34"><g><g><path fill="#a2abb8" d="M18.5.043c.91 0 1.602.744 1.602 1.62v3.33c2.427.701 4.203 2.936 4.203 5.565 0 2.629-1.776 4.863-4.203 5.564v16.255c0 .92-.736 1.621-1.603 1.621-.91 0-1.603-.744-1.603-1.62v-16.3c-2.426-.7-4.202-2.935-4.202-5.564 0-2.63 1.776-4.863 4.202-5.564V1.62c0-.92.737-1.621 1.603-1.577zm0 7.842c-1.474 0-2.6 1.14-2.6 2.63 0 1.489 1.126 2.628 2.6 2.628 1.472 0 2.599-1.227 2.599-2.629s-1.127-2.63-2.6-2.63zM5.804 33.998c-.91 0-1.603-.744-1.603-1.62v-3.462c-2.426-.701-4.203-2.936-4.203-5.564 0-2.629 1.777-4.864 4.203-5.566V1.62c0-.92.693-1.621 1.603-1.621s1.603.744 1.603 1.62v16.167c2.426.702 4.202 2.937 4.202 5.566 0 2.628-1.776 4.863-4.202 5.564v3.461c0 .92-.693 1.621-1.603 1.621zm0-8.018c1.386 0 2.6-1.139 2.6-2.628 0-1.49-1.127-2.629-2.6-2.629s-2.6 1.226-2.6 2.629c0 1.402 1.213 2.628 2.6 2.628zM31.194 0c.91 0 1.603.744 1.603 1.62v16.167c2.426.702 4.202 2.937 4.202 5.566 0 2.628-1.776 4.863-4.202 5.564v3.461c0 .92-.693 1.621-1.603 1.621s-1.603-.744-1.603-1.62v-3.462c-2.427-.701-4.203-2.936-4.203-5.564 0-2.629 1.776-4.864 4.203-5.566V1.62c0-.92.693-1.621 1.603-1.621zm0 20.724c-1.473 0-2.6 1.139-2.6 2.629s1.127 2.628 2.6 2.628 2.6-1.226 2.6-2.628c0-1.403-1.127-2.629-2.6-2.629z"/></g></g></svg>