<svg xmlns="http://www.w3.org/2000/svg" width="19" height="17" viewBox="0 0 38 34"><g><g><path fill="#818d9e" d="M29.687 4.777c1.967 0 3.563 1.615 3.563 3.605 0 1.991-1.596 3.606-3.563 3.606-1.966 0-3.562-1.615-3.562-3.606 0-1.99 1.596-3.605 3.562-3.605zm5.878 9.547a8.23 8.23 0 0 1-4.69 2.38l-9.24 8.376a7.624 7.624 0 0 1-2.078 6.691 7.43 7.43 0 0 1-10.606 0c-1.944-1.96-2.598-4.73-1.967-7.24l-5.789-4.573a3.18 3.18 0 0 1-.534-4.431 3.092 3.092 0 0 1 4.379-.542l5.856 4.633a7.427 7.427 0 0 1 2.968-.788l7.593-11.65a8.456 8.456 0 0 1 2.352-4.746 8.248 8.248 0 0 1 11.756 0c3.244 3.282 3.244 8.608 0 11.89zM19.26 26.409c0-2.786-2.241-5.055-5.002-5.055-.357 0-.698.037-1.032.105l2.353 1.863a3.182 3.182 0 0 1 .534 4.432 3.091 3.091 0 0 1-4.371.54l-2.487-1.968v.083c0 2.794 2.234 5.055 4.995 5.055s5.002-2.26 5.01-5.055zM35.625 8.382c0-3.319-2.657-6.009-5.938-6.009-3.28 0-5.937 2.69-5.937 6.009 0 3.32 2.657 6.01 5.937 6.01 3.281 0 5.938-2.69 5.938-6.01z"/></g></g></svg>