<svg xmlns="http://www.w3.org/2000/svg" width="16.5" height="21" viewBox="0 0 33 42"><g><g><path fill="#fff" d="M33 16.152v11.307c0 .97-.66 1.616-1.651 1.616h-3.3c-.99 0-1.65-.646-1.65-1.616v-7.108c0-.645.495-1.13.99-1.453l2.31-1.13v-1.616c0-7.109-5.94-12.924-13.2-12.924-7.26 0-13.2 5.815-13.2 12.924v1.615l2.31 1.13c.66.324.99.809.99 1.454v7.108c0 .97-.66 1.616-1.65 1.616h-3.3c-.99 0-1.65-.646-1.65-1.616V16.152c0-8.885 7.425-16.154 16.5-16.154S33 7.267 33 16.152zm-4.95 16.154h3.299c0 4.523-3.63 8.076-8.25 8.076h-3.795c-.495.97-1.65 1.616-2.805 1.616-1.815 0-3.3-1.455-3.3-3.231 0-1.777 1.485-3.23 3.3-3.23 1.155 0 2.31.646 2.805 1.614h3.795c2.805 0 4.95-2.099 4.95-4.845z"/></g></g></svg>