<svg xmlns="http://www.w3.org/2000/svg" width="19.5" height="16" viewBox="0 0 39 32"><g><g><path fill="#818d9e" d="M39 1.519c-1.286 5.94-4.713 22.471-6.126 29.002a1.865 1.865 0 0 1-1.178 1.343 1.96 1.96 0 0 1-1.8-.232c-3.293-2.307-9.1-6.495-9.1-6.495L15.76 29.81c-.35.325-.85.45-1.318.331a1.415 1.415 0 0 1-.98-.921A2063.02 2063.02 0 0 1 9.87 18.643s-5.052-1.576-8.9-2.708a1.328 1.328 0 0 1-.964-1.222 1.322 1.322 0 0 1 .88-1.278C9.47 10.312 30.465 2.565 37.282.082a1.319 1.319 0 0 1 1.296.224c.358.3.52.765.423 1.213zM31.945 5.71a.467.467 0 0 0-.611-.102L11.996 17.756l2.73 8.857.606-5.609 16.56-14.69c.175-.156.2-.419.053-.603z"/></g></g></svg>