<svg xmlns="http://www.w3.org/2000/svg" width="21" height="12" viewBox="0 0 42 24"><g><g><path fill="#1b2129" d="M36.139 15.257c1.395 1.375 2.863 2.668 4.11 4.175.549.672 1.074 1.368 1.476 2.146.566 1.11.058 2.328-.927 2.394h-6.119c-1.575.132-2.838-.505-3.896-1.599-.845-.87-1.633-1.797-2.444-2.7-.337-.365-.682-.712-1.1-.986-.837-.547-1.558-.381-2.034.496-.484.896-.599 1.89-.648 2.884-.066 1.459-.5 1.84-1.952 1.905-3.093.15-6.03-.322-8.752-1.897-2.404-1.391-4.266-3.346-5.89-5.567C4.805 12.184 2.385 7.436.212 2.548-.281 1.449.08.86 1.286.835 3.28.792 5.281.801 7.274.834c.812.008 1.345.48 1.665 1.259 1.083 2.684 2.403 5.236 4.06 7.596.443.63.894 1.26 1.535 1.699.705.49 1.246.332 1.582-.471.214-.506.304-1.054.353-1.591.156-1.865.18-3.729-.098-5.584-.173-1.16-.82-1.914-1.96-2.13-.583-.115-.501-.33-.214-.671.492-.579.952-.944 1.878-.944h6.915c1.091.216 1.33.713 1.477 1.814l.008 7.754c-.008.431.213 1.7.976 1.98.615.2 1.017-.29 1.378-.687 1.657-1.773 2.838-3.869 3.896-6.047.468-.953.87-1.947 1.264-2.942.287-.737.746-1.093 1.566-1.077l6.636.017c.197 0 .394 0 .59.033 1.125.19 1.428.68 1.083 1.79-.549 1.731-1.607 3.181-2.649 4.63-1.107 1.55-2.297 3.05-3.396 4.607-1.009 1.433-.935 2.146.32 3.388z"/></g></g></svg>